<svg id="Layer_1" data-name="Layer 1" xmlns="http://www.w3.org/2000/svg" xmlns:xlink="http://www.w3.org/1999/xlink" viewBox="0 0 144 144"><defs><style>.cls-1{fill:url(#PURPLE);}.cls-2{font-size:17.18px;fill:#73139b;}.cls-2,.cls-6{font-family:FranklinGothic-MediumCond, Franklin Gothic Medium Cond;font-weight:500;}.cls-3{letter-spacing:0em;}.cls-4{letter-spacing:0em;}.cls-5{letter-spacing:0.01em;}.cls-6{font-size:6.3px;fill:#ff00fb;letter-spacing:0.29em;}.cls-7{letter-spacing:0.28em;}.cls-8{letter-spacing:0.3em;}</style><linearGradient id="PURPLE" x1="34.5" y1="58.23" x2="113.5" y2="58.23" gradientUnits="userSpaceOnUse"><stop offset="0.24" stop-color="#ff00fb"/><stop offset="0.87" stop-color="#661373"/></linearGradient></defs><path class="cls-1" d="M75.51,50.11l4.84.33V48.62l-4.84-.33Zm11.83-1-4.84-.33v1.82l4.84.33ZM74.68,31.93c5.37-1.22,3.58,1.7,7.6,1.46,0,0,4-1.52,7.2.21,0,0-.74-3.18-3.47-3.37-2-.13-2.84,1.43-5.66,0s-2.63-.95-5.94,0S70,29.33,70,29.33A3.87,3.87,0,0,0,74.68,31.93ZM82.5,53.7l4.84.33V52.21l-4.84-.33ZM80.8,35.61v8.77l10.42.71V35.81s-1.32-1.72-4.69-2A8.72,8.72,0,0,0,80.8,35.61Zm8.68,15.46,4.84.33V49.58l-4.84-.33Zm11.83-1-4.84-.33v1.82l4.84.33ZM57.86,70.19C66.09,65.05,67.34,63,73,59.78V44.35L67.5,49.24,64.06,49v1.82l1.53.1-7.73,6.86ZM54.42,46.44l-9,8.86V77.08a55.46,55.46,0,0,0,9-5.09ZM113.5,67.29A43.09,43.09,0,0,0,110.8,53a60.15,60.15,0,0,0-16.48.64v-.9l-4.84-.33v1.81l1.56.11A57,57,0,0,0,69,65,91.59,91.59,0,0,1,34.5,82l3.62,5.17c13.94-3,35.71-7.06,53.62-7.06a82.54,82.54,0,0,1,14.1,1.07c-.89-1.92-2.13-3.23-.85-5.78C108.46,68.4,113.5,67.29,113.5,67.29ZM61.92,48.86l-4.84-.33v1.82l4.84.33ZM59.58,37.08c3.47,0,2,1.55,4.47,2a6.17,6.17,0,0,1,4.4,1.14s0-2.06-1.66-2.56c-1.24-.37-2,.48-3.48-.8s-1.49-.95-3.65-.85-2.57-1.16-2.57-1.16A2.45,2.45,0,0,0,59.58,37.08Zm.4,4.53v4.83l9.31.63V41.79a5.82,5.82,0,0,0-4.18-1.74A7.79,7.79,0,0,0,60,41.61Z"/><text class="cls-2" transform="translate(10 103.58)">PECUNIA <tspan class="cls-3" x="60.25" y="0">L</tspan><tspan class="cls-4" x="67.2" y="0">OGI</tspan><tspan class="cls-5" x="90.61" y="0">S</tspan><tspan x="99.62" y="0">TICS</tspan></text><text class="cls-6" transform="translate(46.43 109.72)">SHIPPING T<tspan class="cls-7" x="44.76" y="0">R</tspan><tspan x="49.87" y="0">U</tspan><tspan class="cls-8" x="55.13" y="0">S</tspan><tspan x="60.26" y="0">T</tspan></text></svg>